<?xml version="1.0" encoding="UTF-8" standalone="no"?><!-- Generator: Gravit.io --><svg xmlns="http://www.w3.org/2000/svg" xmlns:xlink="http://www.w3.org/1999/xlink" style="isolation:isolate" viewBox="0 0 1440 900" width="1440pt" height="900pt"><defs><clipPath id="_clipPath_YahN1u8Ph7HCtXqTRdZOGFoUGA8sRVAI"><rect width="1440" height="900"/></clipPath></defs><g clip-path="url(#_clipPath_YahN1u8Ph7HCtXqTRdZOGFoUGA8sRVAI)"><g><rect x="0" y="-2.98" width="1440" height="905.96" transform="matrix(1,0,0,1,0,0)" fill="rgb(143,216,252)"/><g><path d=" M 369.98 306.41 C 407.89 324.67 448.01 337.99 489.09 346.97 C 530.15 355.94 572.1 360.7 614.08 362.24 C 656.71 363.81 700.71 363.78 742.54 354.48 C 778.81 346.42 814.35 329.72 839.18 301.38 C 862.83 274.38 874.38 236.92 865.11 201.62 C 860.85 185.41 852.04 170.36 839.01 159.69 C 826.88 149.76 812.02 143.47 796.44 141.68 C 781.28 139.93 765.39 142.92 752.54 151.34 C 738.15 160.76 727.69 177.24 732.46 194.82 C 737.31 212.69 753.74 226.28 767.28 237.77 C 782.02 250.28 797.96 261.4 814.8 270.9 C 831.48 280.31 849.06 288.17 867.2 294.32 C 886.13 300.74 905.51 304.81 925.23 307.92 C 962.19 313.74 1006.6 320.91 1024.82 358.48 C 1028.52 366.11 1030.22 374.44 1029.74 382.9 C 1029.56 386.11 1034.56 386.1 1034.74 382.9 C 1035.66 366.66 1028.64 351.47 1017.9 339.59 C 1005.97 326.4 990.23 317.89 973.4 312.65 C 953.92 306.57 933.54 304.48 913.52 300.95 C 894.84 297.66 876.5 292.7 858.75 286 C 823.73 272.77 791.14 252.91 763.42 227.75 C 750.64 216.15 733.27 200.41 736.59 181.17 C 739.46 164.55 755.38 152.88 770.73 148.54 C 800.63 140.09 834.81 154.71 850.91 180.86 C 869.7 211.39 865.92 251.84 847.6 281.63 C 828.88 312.07 797.07 332.52 763.64 343.52 C 723.89 356.6 681.26 358.04 639.75 357.78 C 598.75 357.53 557.71 354.4 517.3 347.4 C 477.26 340.46 437.82 329.75 400.16 314.41 C 390.8 310.6 381.58 306.48 372.48 302.09 C 369.61 300.7 367.08 305.01 369.98 306.41 L 369.98 306.41 Z " fill="rgb(255,255,255)"/></g><g><path d=" M 1237.86 752.33 C 1237.86 759.3 1213.54 765.2 1180.09 767.13 C 1172.56 767.57 1164.56 767.8 1156.27 767.8 C 1147.74 767.8 1139.52 767.55 1131.78 767.09 C 1098.68 765.12 1074.68 759.25 1074.68 752.33 C 1074.68 745.13 1100.63 739.08 1135.77 737.35 C 1142.32 737.03 1149.19 736.85 1156.27 736.85 C 1166.01 736.85 1175.35 737.17 1184.01 737.77 C 1215.42 739.93 1237.86 745.64 1237.86 752.33 Z " fill="rgb(26,101,124)"/><g><path d=" M 1201.35 650.67 L 1232.15 420.62 L 1172.31 412.44 L 980.42 627.48 L 975.98 660.64 L 1148.62 683.76 L 1141.44 737.36 L 1137.45 767.1 C 1145.18 767.56 1153.4 767.81 1161.94 767.81 C 1170.22 767.81 1178.22 767.57 1185.76 767.14 L 1189.69 737.79 L 1196.07 690.12 L 1248.09 697.09 L 1253.38 657.64 L 1201.35 650.67 Z  M 1032.13 628.01 L 1032.29 626.86 L 1140.1 512.7 C 1152.69 496.92 1163.98 482.14 1178.32 461.95 L 1180.04 462.18 C 1176.3 481.47 1173.12 500.83 1170.52 520.26 L 1153.91 644.31 L 1032.13 628.01 Z " fill="rgb(108,182,211)"/></g><g><path d=" M 1195.69 650.67 L 1226.61 419.71 L 1172.31 412.44 L 974.76 627.48 L 970.32 660.64 L 1142.96 683.76 L 1135.79 737.36 L 1131.8 767.1 C 1139.53 767.56 1147.75 767.81 1156.29 767.81 C 1164.57 767.81 1172.57 767.57 1180.11 767.14 L 1184.04 737.79 L 1190.42 690.12 L 1242.44 697.09 L 1247.73 657.64 L 1195.69 650.67 Z  M 1026.47 628.01 L 1026.63 626.86 L 1134.44 512.7 C 1147.03 496.92 1158.32 482.14 1172.66 461.95 L 1174.38 462.18 C 1170.64 481.47 1167.46 500.83 1164.86 520.26 L 1148.25 644.31 L 1026.47 628.01 Z " fill="rgb(251,255,255)"/></g><path d=" M 433.62 752.33 C 433.62 759.32 409.13 765.23 375.52 767.15 C 368.08 767.58 360.19 767.8 352.03 767.8 C 343.54 767.8 335.35 767.56 327.65 767.09 C 294.51 765.12 270.45 759.25 270.45 752.32 C 270.45 745.39 294.51 739.52 327.65 737.55 C 335.35 737.09 343.54 736.84 352.03 736.84 C 360.2 736.84 368.09 737.07 375.52 737.49 C 409.14 739.43 433.62 745.34 433.62 752.33 Z " fill="rgb(26,101,124)"/><g><path d=" M 381.14 654.86 L 381.14 421.85 L 326.34 421.85 L 159.08 661.21 L 159.08 694.67 L 333.26 694.67 L 333.26 767.11 C 340.96 767.57 349.15 767.82 357.64 767.82 C 365.81 767.82 373.7 767.59 381.13 767.17 L 381.13 694.68 L 433.61 694.68 L 433.61 654.88 L 381.14 654.88 L 381.14 654.86 Z  M 210.42 654.86 L 210.42 653.71 L 302.13 526.24 C 312.51 508.94 321.74 492.78 333.27 470.87 L 335 470.87 C 333.85 490.48 333.27 510.09 333.27 529.7 L 333.27 654.86 L 210.42 654.86 Z " fill="rgb(108,182,211)"/></g><g><path d=" M 375.53 654.86 L 375.53 421.85 L 320.73 421.85 L 153.47 661.21 L 153.47 694.67 L 327.65 694.67 L 327.65 767.11 C 335.35 767.57 343.54 767.82 352.03 767.82 C 360.2 767.82 368.09 767.59 375.52 767.17 L 375.52 694.68 L 428 694.68 L 428 654.88 L 375.53 654.88 L 375.53 654.86 Z  M 204.8 654.86 L 204.8 653.71 L 296.51 526.24 C 306.89 508.94 316.12 492.78 327.65 470.87 L 329.38 470.87 C 328.23 490.48 327.65 510.09 327.65 529.7 L 327.65 654.86 L 204.8 654.86 Z " fill="rgb(251,255,255)"/></g><path d=" M 1002.92 748.13 C 1002.92 755.05 994.22 761.64 978.57 767.57 C 976.38 768.41 974.06 769.22 971.6 770.03 C 948.83 777.48 914.79 783.78 873.32 788.26 C 830.18 792.93 779.01 795.63 724.15 795.63 C 669.27 795.63 618.11 792.93 574.98 788.26 C 533.97 783.83 500.21 777.63 477.44 770.27 C 474.98 769.48 472.67 768.68 470.47 767.86 C 454.36 761.86 445.38 755.18 445.38 748.15 C 445.38 741.12 454.36 734.44 470.47 728.43 C 472.66 727.61 474.98 726.81 477.44 726.02 C 500.2 718.67 533.96 712.46 574.98 708.03 C 618.11 703.36 669.28 700.66 724.15 700.66 C 779.02 700.66 830.19 703.36 873.32 708.03 C 914.79 712.51 948.83 718.81 971.6 726.26 C 974.06 727.07 976.38 727.89 978.57 728.72 C 994.22 734.62 1002.92 741.2 1002.92 748.13 Z " fill="rgb(26,101,124)"/><g><path d=" M 978.57 692.07 L 978.57 767.57 C 976.38 768.41 974.06 769.22 971.6 770.03 L 971.6 695.56 L 902.56 695.56 C 882.82 695.56 866.77 679.5 866.77 659.77 L 866.77 652.9 C 866.77 633.17 882.82 617.11 902.56 617.11 L 975.09 617.11 C 977.01 617.11 978.57 618.67 978.57 620.59 C 978.57 622.51 977.01 624.07 975.09 624.07 L 902.56 624.07 C 886.67 624.07 873.74 637 873.74 652.89 L 873.74 659.76 C 873.74 675.65 886.67 688.58 902.56 688.58 L 975.09 688.58 C 977.01 688.58 978.57 690.14 978.57 692.07 Z " fill="rgb(29,30,30)"/><circle vector-effect="non-scaling-stroke" cx="988.6100000000001" cy="617.1" r="27.75999999999999" fill="rgb(29,30,30)"/><ellipse vector-effect="non-scaling-stroke" cx="988.6599999999999" cy="606.78" rx="12.690000000000055" ry="4.909999999999968" fill="rgb(255,255,255)"/><ellipse vector-effect="non-scaling-stroke" cx="988.6599999999999" cy="627.47" rx="12.690000000000055" ry="4.909999999999968" fill="rgb(255,255,255)"/></g><g><path d=" M 582.28 656.08 L 582.28 662.95 C 582.28 682.68 566.23 698.74 546.49 698.74 L 477.45 698.74 L 477.45 770.26 C 474.99 769.47 472.68 768.67 470.48 767.85 L 470.48 695.26 C 470.48 693.34 472.04 691.78 473.96 691.78 L 546.49 691.78 C 562.38 691.78 575.31 678.85 575.31 662.96 L 575.31 656.09 C 575.31 640.2 562.38 627.27 546.49 627.27 L 473.96 627.27 C 472.04 627.27 470.48 625.71 470.48 623.79 C 470.48 621.87 472.04 620.31 473.96 620.31 L 546.49 620.31 C 566.23 620.29 582.28 636.34 582.28 656.08 Z " fill="rgb(29,30,30)"/></g><path d=" M 873.33 690.05 L 873.33 788.25 C 830.19 792.92 779.02 795.62 724.16 795.62 C 669.28 795.62 618.12 792.92 574.99 788.25 L 574.99 690.05 C 574.99 607.67 641.78 540.88 724.16 540.88 C 765.36 540.88 802.64 557.58 829.64 584.58 C 856.63 611.56 873.33 648.85 873.33 690.05 Z " fill="rgb(250,208,26)"/><path d=" M 875.7 690.05 L 875.7 788.25 C 832.56 792.92 781.39 795.62 726.53 795.62 C 723.35 795.62 720.19 795.61 717.04 795.59 C 768.03 795.28 815.53 792.63 855.97 788.26 L 855.97 690.06 C 855.97 648.86 839.27 611.58 812.27 584.58 C 787.45 559.76 753.93 543.64 716.66 541.21 C 719.92 540.99 723.21 540.89 726.53 540.89 C 767.73 540.89 805.01 557.59 832.01 584.59 C 859 611.56 875.7 648.85 875.7 690.05 Z " fill="rgb(255,255,255)"/><circle vector-effect="non-scaling-stroke" cx="665.6199999999999" cy="683.99" r="21.230000000000018" fill="rgb(65,178,181)"/><circle vector-effect="non-scaling-stroke" cx="774.9499999999998" cy="683.99" r="21.230000000000018" fill="rgb(65,178,181)"/><path d=" M 880.62 705.22 L 565.91 705.22 C 558.79 705.22 553.02 699.45 553.02 692.33 L 553.02 669.22 C 553.02 662.1 558.79 656.33 565.91 656.33 L 880.62 656.33 C 887.74 656.33 893.51 662.1 893.51 669.22 L 893.51 692.33 C 893.51 699.45 887.73 705.22 880.62 705.22 Z " fill="rgb(255,123,125)"/><path d=" M 868.68 705.22 L 577.85 705.22 C 571 705.22 565.44 699.66 565.44 692.81 L 565.44 668.74 C 565.44 661.89 571 656.33 577.85 656.33 L 868.68 656.33 C 875.53 656.33 881.09 661.89 881.09 668.74 L 881.09 692.81 C 881.09 699.66 875.53 705.22 868.68 705.22 Z " fill="rgb(200,37,58)"/><path d=" M 811.79 750.52 L 634.73 750.52 C 602.45 750.52 576.27 724.35 576.27 692.06 L 576.27 669.49 C 576.27 637.21 602.44 611.03 634.73 611.03 L 811.79 611.03 C 844.07 611.03 870.25 637.2 870.25 669.49 L 870.25 692.06 C 870.25 724.34 844.08 750.52 811.79 750.52 Z " fill="rgb(73,154,186)"/><path d=" M 806.24 736.86 L 640.28 736.86 C 612.76 736.86 590.45 714.55 590.45 687.03 L 590.45 674.51 C 590.45 646.99 612.76 624.68 640.28 624.68 L 806.24 624.68 C 833.76 624.68 856.07 646.99 856.07 674.51 L 856.07 687.03 C 856.07 714.55 833.76 736.86 806.24 736.86 Z " fill="rgb(50,126,150)"/><circle vector-effect="non-scaling-stroke" cx="666.06" cy="680.77" r="21.230000000000018" fill="rgb(73,154,186)"/><circle vector-effect="non-scaling-stroke" cx="775.3899999999999" cy="680.77" r="21.230000000000018" fill="rgb(73,154,186)"/><rect x="718.57" y="514.03" width="10.29" height="34.29" transform="matrix(1,0,0,1,0,0)" fill="rgb(254,206,44)"/><circle vector-effect="non-scaling-stroke" cx="724.1500000000001" cy="502.69999999999993" r="19.730000000000018" fill="rgb(254,206,44)"/><circle vector-effect="non-scaling-stroke" cx="668.1500000000001" cy="680.77" r="21.230000000000018" fill="rgb(243,255,255)"/><circle vector-effect="non-scaling-stroke" cx="777.4899999999998" cy="680.77" r="21.230000000000018" fill="rgb(243,255,255)"/><circle vector-effect="non-scaling-stroke" cx="666.06" cy="677.25" r="10.840000000000032" fill="rgb(29,30,30)"/><circle vector-effect="non-scaling-stroke" cx="782.4299999999998" cy="682.86" r="9.529999999999973" fill="rgb(29,30,30)"/><path d=" M 470.39 646.3 L 457.1 646.3 C 454.81 646.3 452.95 644.44 452.95 642.15 L 452.95 607.23 C 452.95 604.94 454.81 603.08 457.1 603.08 L 470.39 603.08 C 477.5 603.08 483.26 608.84 483.26 615.95 L 483.26 633.43 C 483.26 640.53 477.5 646.3 470.39 646.3 Z " fill="rgb(29,30,30)"/><g><path d=" M 459.71 618.05 L 436.5 618.05 C 434.91 618.05 433.63 616.76 433.63 615.18 L 433.63 615.18 C 433.63 613.59 434.92 612.31 436.5 612.31 L 459.71 612.31 C 461.3 612.31 462.58 613.6 462.58 615.18 L 462.58 615.18 C 462.58 616.77 461.29 618.05 459.71 618.05 Z " fill="rgb(29,30,30)"/><path d=" M 459.71 637.07 L 436.5 637.07 C 434.91 637.07 433.63 635.78 433.63 634.2 L 433.63 634.2 C 433.63 632.61 434.92 631.33 436.5 631.33 L 459.71 631.33 C 461.3 631.33 462.58 632.62 462.58 634.2 L 462.58 634.2 C 462.58 635.78 461.29 637.07 459.71 637.07 Z " fill="rgb(29,30,30)"/></g></g><g><g><path d=" M 617.55 177.7 L 617.55 232.99 C 617.55 243.82 620.03 253.41 632.22 253.41 C 644.41 253.41 647.11 244.95 647.11 232.99 L 647.11 177.7 L 649.14 177.7 L 649.14 233.1 C 649.14 246.75 645.3 255.33 632.1 255.33 C 619.69 255.33 615.51 246.98 615.51 233.33 L 615.51 177.7 L 617.55 177.7 Z " fill="rgb(26,101,124)"/><path d=" M 666.06 174.43 L 666.06 208.51 C 667.42 203.09 670.8 196.89 679.94 196.89 C 686.37 196.89 692.8 199.82 692.8 213.59 L 692.8 254.32 L 690.77 254.32 L 690.77 214.49 C 690.77 204 687.5 198.92 679.71 198.92 C 669.55 198.92 666.06 207.83 666.06 220.02 L 666.06 254.32 L 664.03 254.32 L 664.03 174.43 L 666.06 174.43 L 666.06 174.43 Z " fill="rgb(26,101,124)"/><path d=" M 761.98 215.5 C 761.98 241 757.58 255.33 743.47 255.33 C 730.49 255.33 725.08 243.59 725.08 215.5 C 725.08 187.06 731.85 176.68 743.81 176.68 C 755.77 176.68 761.98 187.18 761.98 215.5 Z  M 727.11 215.39 C 727.11 242.92 732.41 253.42 743.47 253.42 C 756.56 253.42 759.94 238.53 759.94 215.51 C 759.94 190.57 755.43 178.61 743.58 178.61 C 733.09 178.6 727.11 188.31 727.11 215.39 Z " fill="rgb(26,101,124)"/><path d=" M 776.53 174.43 L 776.53 208.51 C 777.88 203.09 781.27 196.89 790.41 196.89 C 796.84 196.89 803.27 199.82 803.27 213.59 L 803.27 254.32 L 801.24 254.32 L 801.24 214.49 C 801.24 204 797.97 198.92 790.18 198.92 C 780.02 198.92 776.53 207.83 776.53 220.02 L 776.53 254.32 L 774.5 254.32 L 774.5 174.43 L 776.53 174.43 L 776.53 174.43 Z " fill="rgb(26,101,124)"/><path d=" M 823.36 232.09 C 823.36 232.09 823.25 191.69 823.25 191.69 L 823.25 177.7 L 825.28 177.7 L 825.28 191.69 L 825.28 232.09 L 823.36 232.09 Z  M 823.24 254.32 L 823.24 243.94 L 825.27 243.94 L 825.27 254.32 L 823.24 254.32 Z " fill="rgb(26,101,124)"/></g></g><g><g><path d=" M 655.74 293.54 L 655.74 299.94 L 654.6 299.94 L 654.6 285.89 C 654.6 284.09 654.6 282.87 654.57 282.06 L 655.68 282.06 C 655.71 282.27 655.73 283.28 655.73 284.03 C 656.22 282.71 657.23 281.85 658.95 281.85 C 661.45 281.85 662.76 284.11 662.76 288.42 C 662.76 292.84 661.17 295.33 658.59 295.33 C 656.89 295.33 656.11 294.45 655.74 293.54 Z  M 661.58 288.47 C 661.58 285.09 660.75 282.92 658.76 282.92 C 656.41 282.92 655.69 285.17 655.69 288.59 C 655.69 291.77 656.07 294.24 658.58 294.24 C 660.55 294.25 661.58 291.88 661.58 288.47 Z " fill="rgb(26,101,124)"/><path d=" M 672.41 293.14 C 672.41 294.07 672.49 294.8 672.51 295.09 L 671.46 295.09 C 671.38 294.78 671.33 294 671.33 293.43 C 670.86 294.65 669.8 295.32 668.16 295.32 C 665.66 295.32 664.79 293.39 664.79 291.61 C 664.79 289.41 666.26 287.51 669.75 287.51 C 670.47 287.51 670.86 287.51 671.3 287.56 L 671.3 285.62 C 671.3 284.43 671.04 282.88 668.97 282.88 C 666.62 282.88 666.52 284.61 666.44 285.49 L 665.31 285.49 C 665.36 283.66 666.25 281.83 669 281.83 C 671.36 281.83 672.41 283.03 672.41 285.38 L 672.41 293.14 L 672.41 293.14 Z  M 671.33 288.62 C 670.99 288.57 670.58 288.54 669.83 288.54 C 667.12 288.54 665.95 289.86 665.95 291.56 C 665.95 293.03 666.75 294.27 668.33 294.27 C 670.48 294.27 671.33 292.79 671.33 289.51 L 671.33 288.62 Z " fill="rgb(26,101,124)"/><path d=" M 683.35 294.41 C 683.35 297.65 682.69 300.15 679.08 300.15 C 675.94 300.15 675.26 297.96 675.18 296.68 L 676.37 296.68 C 676.42 297.61 677.04 299.1 679.11 299.1 C 681.67 299.1 682.21 297.26 682.21 294.41 L 682.21 292.82 C 681.76 294.32 680.6 295.1 679.01 295.1 C 676.48 295.1 675.1 293.01 675.1 288.74 C 675.1 283.9 676.92 281.86 679.3 281.86 C 681.1 281.86 681.95 282.74 682.21 283.78 C 682.18 283.08 682.26 282.31 682.29 282.07 L 683.37 282.07 C 683.34 282.67 683.34 284 683.34 285.73 L 683.34 294.41 L 683.35 294.41 Z  M 676.29 288.73 C 676.29 292.2 677.3 294.01 679.19 294.01 C 681.54 294.01 682.24 291.66 682.24 288.46 C 682.24 284.92 681.63 282.92 679.4 282.92 C 677.36 282.93 676.29 285.05 676.29 288.73 Z " fill="rgb(26,101,124)"/><path d=" M 687.26 288.64 C 687.26 291.79 687.85 294.27 690.18 294.27 C 692.58 294.27 692.89 291.9 692.97 291.53 L 694.13 291.53 C 694.1 291.82 693.69 295.32 690.18 295.32 C 686.59 295.32 686.1 291.83 686.1 288.62 C 686.1 284.5 687.41 281.85 690.31 281.85 C 693.5 281.85 694.24 284.67 694.24 287.83 C 694.24 287.94 694.24 288.26 694.21 288.65 L 687.26 288.65 L 687.26 288.64 Z  M 693.07 287.63 C 693.07 284.75 692.38 282.9 690.28 282.9 C 687.46 282.9 687.33 286.77 687.28 287.63 L 693.07 287.63 Z " fill="rgb(26,101,124)"/><path d=" M 701.96 286.07 C 701.96 283.41 701.93 282.61 701.93 282.05 L 703.04 282.05 C 703.07 282.36 703.09 282.86 703.09 283.99 C 703.56 282.78 704.52 281.84 706.31 281.84 C 708.04 281.84 709.67 282.74 709.67 285.8 L 709.67 295.08 L 708.51 295.08 L 708.51 285.97 C 708.51 284.18 707.82 282.92 706.16 282.92 C 703.99 282.92 703.12 284.41 703.12 287.54 L 703.12 295.09 L 701.96 295.09 L 701.96 286.07 L 701.96 286.07 Z " fill="rgb(26,101,124)"/><path d=" M 720.8 288.4 C 720.8 292.89 719.38 295.33 716.61 295.33 C 713.69 295.33 712.37 292.97 712.37 288.42 C 712.37 283.96 714.02 281.85 716.64 281.85 C 719.31 281.85 720.8 284.02 720.8 288.4 Z  M 713.56 288.45 C 713.56 292.49 714.72 294.28 716.58 294.28 C 718.5 294.28 719.6 292.44 719.6 288.4 C 719.6 284.77 718.54 282.9 716.58 282.9 C 714.75 282.9 713.56 284.44 713.56 288.45 Z " fill="rgb(26,101,124)"/><path d=" M 721.76 282.06 L 723.68 282.06 L 723.68 278.44 L 724.79 278.44 L 724.79 282.06 L 727.23 282.06 L 727.23 283.11 L 724.79 283.11 L 724.79 292.6 C 724.79 293.59 725.02 294.23 726.04 294.23 C 726.35 294.23 726.84 294.2 727.08 294.15 L 727.08 295.09 C 726.71 295.22 726.16 295.27 725.74 295.27 C 724.57 295.27 723.69 294.74 723.69 292.88 L 723.69 283.1 L 721.77 283.1 L 721.77 282.06 L 721.76 282.06 Z " fill="rgb(26,101,124)"/><path d=" M 734.38 295.09 L 734.38 283.11 L 732.56 283.11 L 732.56 282.06 L 734.38 282.06 L 734.38 279.92 C 734.38 278.16 734.89 276.4 737.11 276.4 C 737.4 276.4 737.82 276.45 738.06 276.53 L 738.06 277.63 C 737.83 277.58 737.49 277.5 737.1 277.5 C 735.96 277.5 735.52 278.25 735.52 279.85 L 735.52 282.07 L 737.7 282.07 L 737.7 283.12 L 735.52 283.12 L 735.52 295.1 L 734.38 295.1 L 734.38 295.09 Z " fill="rgb(26,101,124)"/><path d=" M 746.9 288.4 C 746.9 292.89 745.48 295.33 742.71 295.33 C 739.79 295.33 738.47 292.97 738.47 288.42 C 738.47 283.96 740.12 281.85 742.74 281.85 C 745.41 281.85 746.9 284.02 746.9 288.4 Z  M 739.66 288.45 C 739.66 292.49 740.82 294.28 742.68 294.28 C 744.6 294.28 745.7 292.44 745.7 288.4 C 745.7 284.77 744.64 282.9 742.68 282.9 C 740.85 282.9 739.66 284.44 739.66 288.45 Z " fill="rgb(26,101,124)"/><path d=" M 757.21 291.69 C 757.21 293.16 757.21 294.49 757.24 295.09 L 756.16 295.09 C 756.11 294.72 756.08 294.25 756.08 293.15 C 755.69 294.5 754.49 295.33 752.86 295.33 C 751.57 295.33 749.6 294.9 749.6 291.45 L 749.6 282.07 L 750.76 282.07 L 750.76 291.16 C 750.76 293.07 751.35 294.29 753.11 294.29 C 754.74 294.29 756.05 293.23 756.05 289.92 L 756.05 282.07 L 757.21 282.07 L 757.21 291.69 Z " fill="rgb(26,101,124)"/><path d=" M 760.56 286.07 C 760.56 283.41 760.53 282.61 760.53 282.05 L 761.64 282.05 C 761.67 282.36 761.69 282.86 761.69 283.99 C 762.16 282.78 763.12 281.84 764.91 281.84 C 766.64 281.84 768.27 282.74 768.27 285.8 L 768.27 295.08 L 767.11 295.08 L 767.11 285.97 C 767.11 284.18 766.42 282.92 764.76 282.92 C 762.59 282.92 761.72 284.41 761.72 287.54 L 761.72 295.09 L 760.56 295.09 L 760.56 286.07 L 760.56 286.07 Z " fill="rgb(26,101,124)"/><path d=" M 779.17 276.52 L 779.17 291.93 C 779.17 293.01 779.17 294.31 779.2 295.09 L 778.09 295.09 C 778.06 294.75 778.04 293.77 778.04 293.1 C 777.62 294.37 776.77 295.33 774.87 295.33 C 772.18 295.33 770.99 293.13 770.99 288.42 C 770.99 284.15 772.68 281.85 775.22 281.85 C 777.09 281.85 777.74 282.7 778.05 283.43 L 778.05 276.52 L 779.17 276.52 Z  M 772.17 288.42 C 772.17 292.67 773.23 294.22 775.04 294.22 C 777.37 294.22 778.04 292.15 778.04 288.36 C 778.04 284.04 777.32 282.92 775.2 282.92 C 773.43 282.93 772.17 284.58 772.17 288.42 Z " fill="rgb(26,101,124)"/><path d=" M 781.84 295.12 L 781.84 291.8 L 782.98 291.8 L 782.98 295.12 L 781.84 295.12 Z " fill="rgb(26,101,124)"/><path d=" M 784.94 295.12 L 784.94 291.8 L 786.08 291.8 L 786.08 295.12 L 784.94 295.12 Z " fill="rgb(26,101,124)"/></g></g><g><path d=" M 408.63 355.62 C 423.09 361.51 437.83 366.69 452.8 371.13 C 467.69 375.55 482.8 379.24 498.05 382.19 C 513.44 385.17 528.98 387.41 544.59 388.9 C 560.13 390.39 575.74 391.12 591.35 391.09 C 606.96 391.06 622.57 390.26 638.1 388.7 C 640 388.51 641.91 388.3 643.81 388.09 C 645.15 387.94 646.31 387.05 646.31 385.59 C 646.31 384.36 645.16 382.94 643.81 383.09 C 628.37 384.83 612.86 385.82 597.33 386.05 C 581.8 386.27 566.26 385.74 550.78 384.46 C 535.37 383.19 520.02 381.16 504.81 378.39 C 489.53 375.61 474.38 372.09 459.44 367.85 C 444.5 363.61 429.76 358.63 415.31 352.94 C 413.53 352.24 411.75 351.53 409.98 350.81 C 408.73 350.3 407.23 351.36 406.9 352.56 C 406.49 353.97 407.37 355.11 408.63 355.62 L 408.63 355.62 Z " fill="rgb(255,255,255)"/></g><g><path d=" M 980.43 291.9 C 997.24 294.8 1012.55 303.98 1023.28 317.22 C 1026.29 320.94 1028.86 325.02 1031.02 329.29 C 1032.47 332.16 1036.79 329.63 1035.34 326.77 C 1027.17 310.6 1012.9 297.96 996.16 291.19 C 991.52 289.31 986.69 287.94 981.76 287.09 C 980.43 286.86 979.07 287.44 978.68 288.84 C 978.36 290.03 979.09 291.67 980.43 291.9 L 980.43 291.9 Z " fill="rgb(255,255,255)"/></g></g></g></svg>